<svg width="240" height="240" viewBox="0 0 240 240" fill="none" xmlns="http://www.w3.org/2000/svg">
<path d="M180.249 183.177C174.836 185.949 127.823 195.44 92.1051 185.722C65.4219 178.441 29.8323 157.653 18.0004 150.478C15.8362 149.166 15.3532 146.271 16.9196 144.279L60.8129 88.4611C62.6743 86.0941 66.3479 86.3208 67.9504 88.8714C75.0586 100.185 93.0525 127.01 114.486 145.261C143.237 169.758 166.467 176.634 180.409 178.226C182.132 178.423 185.661 180.405 180.249 183.177Z" fill="#00D6BC"/>
<path d="M167.577 163.734C163.126 162.752 131.387 145.773 115.31 123.067C103.736 106.696 93.3288 79.0859 89.5105 68.3402C88.6612 65.9501 90.1174 63.4018 92.5881 62.8618L141.827 52.1006C144.763 51.459 147.461 53.9804 147.106 56.9746C145.832 67.7192 143.915 90.5271 147.483 110.329C152.508 138.266 162.7 153.355 170.02 160.943C170.925 161.881 172.028 164.716 167.577 163.734Z" fill="#00D6BC"/>
<path d="M172.604 150.816C170.568 148.41 160.203 125.775 160.826 106.561C161.258 93.5124 166.416 75.4149 168.997 67.0934C169.749 64.6705 172.449 63.5121 174.741 64.5834L203.181 77.8754C205.904 79.1484 206.531 82.805 204.469 84.9976C198.974 90.8385 189.584 101.672 183.802 113.055C174.93 130.507 174.246 143.07 175.108 150.307C175.215 151.202 174.64 153.222 172.604 150.816Z" fill="#00D6BC"/>
<path d="M184.392 143.711C184.307 141.885 187.537 127.826 194.597 119.238C199.154 113.704 207.269 107.595 211.602 104.511C213.149 103.41 215.279 103.964 216.15 105.654L223.639 120.173C224.675 122.182 223.371 124.646 221.149 125.024C216.449 125.824 209.018 127.441 202.842 130.374C192.62 135.226 187.877 140.743 185.72 144.367C185.453 144.815 184.478 145.537 184.392 143.711Z" fill="#00D6BC"/>
</svg>
